<svg xmlns="http://www.w3.org/2000/svg" viewBox="0 0 200 200" fill="none">
  <!-- Heart shape -->
  <path d="M100 160c-40-30-70-55-70-85 0-25 20-45 45-45 15 0 25 10 25 10s10-10 25-10c25 0 45 20 45 45 0 30-30 55-70 85z" fill="#F3E8E0" stroke="#B48264" stroke-width="2"/>
  <!-- Broken heart line -->
  <path d="M100 50v110" stroke="#D4B8A0" stroke-width="2" stroke-dasharray="8 4"/>
  <!-- Decorative stars -->
  <path d="M45 50l3 6 7 1-5 5 1 7-6-3-6 3 1-7-5-5 7-1 3-6z" fill="#E8D4C4" opacity="0.6"/>
  <path d="M155 60l2 4 5 1-4 4 1 5-4-2-4 2 1-5-4-4 5-1 2-4z" fill="#E8D4C4" opacity="0.5"/>
  <!-- Small hearts -->
  <path d="M40 130c-8-6-14-11-14-17 0-5 4-9 9-9 3 0 5 2 5 2s2-2 5-2c5 0 9 4 9 9 0 6-6 11-14 17z" fill="#E8D4C4" opacity="0.4"/>
  <path d="M170 100c-6-4-10-8-10-12 0-4 3-7 7-7 2 0 3 1 3 1s1-1 3-1c4 0 7 3 7 7 0 4-4 8-10 12z" fill="#E8D4C4" opacity="0.4"/>
</svg>
